<svg width="403" height="396" viewBox="0 0 403 396" fill="none" xmlns="http://www.w3.org/2000/svg">
<path fill-rule="evenodd" clip-rule="evenodd" d="M201.398 0C90.0302 0 0 90.75 0 203.02C0 292.764 57.6854 368.73 137.71 395.616C147.716 397.638 151.38 391.248 151.38 385.873C151.38 381.166 151.051 365.034 151.051 348.224C95.0266 360.327 83.36 324.023 83.36 324.023C74.3566 300.494 61.0164 294.447 61.0164 294.447C42.6797 282.01 62.352 282.01 62.352 282.01C82.6922 283.354 93.3652 302.849 93.3652 302.849C111.368 333.77 140.378 325.033 152.048 319.654C153.714 306.545 159.052 297.47 164.721 292.429C120.037 287.723 73.0251 270.245 73.0251 192.262C73.0251 170.078 81.0226 151.928 93.695 137.812C91.6956 132.771 84.6916 111.928 95.6985 84.0304C95.6985 84.0304 112.704 78.6514 151.047 104.87C167.462 100.426 184.392 98.1652 201.398 98.1461C218.403 98.1461 235.738 100.502 251.746 104.87C290.093 78.6514 307.098 84.0304 307.098 84.0304C318.105 111.928 311.096 132.771 309.097 137.812C322.103 151.928 329.771 170.078 329.771 192.262C329.771 270.245 282.759 287.385 237.742 292.429C245.08 298.815 251.412 310.914 251.412 330.074C251.412 357.299 251.082 379.149 251.082 385.869C251.082 391.248 254.751 397.638 264.752 395.62C344.777 368.725 402.462 292.764 402.462 203.02C402.792 90.75 312.432 0 201.398 0Z" fill="#FFC700"/>
</svg>
