<svg width="435" height="465" viewBox="0 0 435 465" fill="#FFC700" xmlns="http://www.w3.org/2000/svg">
<path d="M201.676 3.05498L418.272 33.6103C427.677 34.9371 434.433 43.3438 433.704 52.8143L431.642 79.6325C430.857 89.8283 421.747 97.3235 411.591 96.1287L247.061 76.7714C236.158 75.4888 226.657 84.1798 226.965 95.153L235.13 386.16C235.159 387.171 235.104 388.201 234.942 389.199C225.561 446.782 151.462 462.288 115.276 462.816C66.5186 464.948 -23.6434 449.388 5.77115 370.093C35.1857 290.799 145.384 299.752 196.806 314.14L181.187 21.8389C180.583 10.5246 190.457 1.47226 201.676 3.05498Z" fill="#FFC700)"/>
<path fill-rule="evenodd" clip-rule="evenodd" d="M402.731 334L294 322.852V302.148L402.731 291C414.478 291 424 300.626 424 312.5C424 324.374 414.478 334 402.731 334Z" fill="#FFC700"/>
<path fill-rule="evenodd" clip-rule="evenodd" d="M396.426 213.508L291.748 246.288L282.156 231.101L378.474 175.01C389.105 170.053 401.742 174.652 406.699 185.283C411.657 195.914 407.057 208.551 396.426 213.508Z" fill="#FFC700"/>
<path fill-rule="evenodd" clip-rule="evenodd" d="M365.06 455.256L268.568 397.357L277.36 380.572L383.012 416.758C393.643 421.715 398.242 434.352 393.285 444.983C388.327 455.614 375.691 460.213 365.06 455.256Z" fill="#FFC700"/>
</svg>
